<?xml version="1.0" encoding="utf-8"?>
<!-- Generator: Adobe Illustrator 16.0.0, SVG Export Plug-In . SVG Version: 6.00 Build 0)  -->
<!DOCTYPE svg PUBLIC "-//W3C//DTD SVG 1.1//EN" "http://www.w3.org/Graphics/SVG/1.1/DTD/svg11.dtd">
<svg version="1.1" id="Layer_1" xmlns="http://www.w3.org/2000/svg" xmlns:xlink="http://www.w3.org/1999/xlink" x="0px" y="0px"
	 width="640px" height="480px" viewBox="0 0 640 480" enable-background="new 0 0 640 480" xml:space="preserve">
<g>
	<path fill="#6C9DD5" d="M546.473,447.272h-23.127V176.291c0-6.982-5.673-12.655-12.654-12.655l0,0H430.4V20.073
		c0-6.982-5.673-12.655-12.655-12.655l0,0H224c-6.982,0-12.654,5.673-12.654,12.655l0,0v31.418h-80.291
		c-6.982,0-12.655,5.673-12.655,12.655l0,0v382.69H95.273c-6.982-0.436-13.091,4.801-13.527,12.219
		c-0.437,6.981,4.8,13.091,12.218,13.527c0.436,0,0.873,0,1.745,0h451.2c6.981-0.437,12.654-6.546,12.218-13.527
		C558.255,452.945,553.019,447.709,546.473,447.272z M396.8,204.654c0-3.054,2.618-5.672,5.673-6.109h21.818
		c3.491,0,6.109,2.618,6.109,6.109v21.818c0,3.491-2.618,6.109-6.109,6.109h-21.818c-3.491,0-6.109-2.618-6.109-6.109L396.8,204.654
		z M430.4,260.51v21.817c0,3.491-2.618,6.109-6.109,6.109h-22.255c-3.49,0-6.108-2.618-6.108-6.109V260.51
		c0-3.492,2.618-6.109,5.672-6.109l0,0h21.818C427.782,254.4,430.4,257.018,430.4,260.51L430.4,260.51L430.4,260.51z M396.8,316.363
		c0-3.054,2.618-5.672,5.673-6.108h21.818c3.491,0,6.109,2.618,6.109,6.108v21.818c0,3.491-2.618,6.109-6.109,6.109h-21.818
		c-3.491,0-6.109-2.618-6.109-6.109L396.8,316.363z M338.327,260.51c0-3.492,2.618-6.109,5.673-6.109l0,0h21.818
		c3.49,0,6.109,2.617,6.109,6.109l0,0v21.817c0,3.491-2.619,6.109-6.109,6.109l0,0H344c-3.49,0-6.109-2.618-6.109-6.109l0,0
		L338.327,260.51z M211.346,92.509c0-3.491,2.618-6.109,5.672-6.109l0,0h21.818c3.491,0,6.109,2.618,6.109,6.109l0,0v21.818
		c0,3.491-2.618,6.109-5.672,6.109l0,0h-21.818c-3.491,0-6.109-2.618-6.109-6.109V92.509L211.346,92.509z M211.346,148.364
		c0-3.491,2.618-6.109,6.109-6.109h21.818c3.491,0,6.109,2.618,6.109,6.109l0,0v21.818c0,3.055-2.618,6.109-6.109,6.109h-21.818
		c-3.491,0-6.109-2.618-6.109-6.109l0,0V148.364z M211.346,204.654c0-3.491,2.618-6.109,6.109-6.109l0,0h21.818
		c3.491,0,6.109,2.618,6.109,6.109l0,0v21.818c0,3.055-2.618,6.109-6.109,6.109h-21.818c-3.491,0-6.109-2.618-6.109-6.109l0,0
		V204.654z M211.346,260.51c0-3.492,2.618-6.109,5.672-6.109l0,0h21.818c3.491,0,6.109,2.617,6.109,6.109l0,0v21.817
		c0,3.491-2.618,6.109-5.672,6.109l0,0h-21.818c-3.491,0-6.109-2.618-6.109-6.109l0,0V260.51L211.346,260.51z M211.346,316.363
		c0-3.49,2.618-6.108,6.109-6.108h21.818c3.491,0,6.109,2.618,6.109,6.108v21.818c0,3.055-2.618,5.673-6.109,5.673h-21.818
		c-3.491,0-6.109-2.618-6.109-6.109V316.363z M186.909,338.618c0,3.491-2.618,6.109-6.109,6.109h-21.818
		c-3.491,0-6.109-2.618-6.109-5.673l0,0v-21.818c0-3.491,2.618-6.109,6.109-6.109H180.8c3.491,0,6.109,2.618,6.109,6.109V338.618z
		 M186.909,282.327c0,3.491-2.618,6.109-6.109,6.109l0,0h-21.818c-3.491,0-6.109-2.618-6.109-5.673l0,0v-21.818
		c0-3.49,2.618-6.109,5.673-6.109c0,0,0,0,0.437,0H180.8c3.491,0,6.109,2.619,6.109,6.109l0,0V282.327z M186.909,226.473
		c0,3.491-2.618,6.109-6.109,6.109l0,0h-21.818c-3.491,0-6.109-2.618-6.109-5.673l0,0v-21.818c0-3.491,2.618-6.109,6.109-6.109l0,0
		H180.8c3.491,0,6.109,2.618,6.109,6.109l0,0V226.473z M186.909,170.618c0,3.491-2.618,6.109-6.109,6.109l0,0h-21.818
		c-3.491,0-6.109-2.619-6.109-5.673l0,0v-21.818c0-3.491,2.618-6.109,6.109-6.109H180.8c3.491,0,6.109,2.618,6.109,6.109V170.618z
		 M186.909,114.327c0,3.491-2.618,6.109-6.109,6.109h-21.818c-3.491,0-6.109-2.618-6.109-5.673l0,0V92.945
		c0-3.491,2.618-6.109,5.673-6.109c0,0,0,0,0.437,0H180.8c3.491,0,6.109,2.618,6.109,6.109V114.327z M258.036,447.272h-59.782
		v-74.618c0-3.49,2.618-6.108,6.109-6.108h47.563c3.491,0,6.109,2.618,6.109,6.108V447.272z M303.418,338.618
		c0,3.491-2.618,6.109-6.109,6.109h-21.818c-3.491,0-6.109-2.618-6.109-6.109V316.8c0-3.491,2.618-6.108,6.109-6.108h21.818
		c3.491,0,6.109,2.617,6.109,6.108V338.618z M303.418,282.327c0,3.491-2.618,6.109-6.109,6.109l0,0h-21.818
		c-3.491,0-6.109-2.618-6.109-6.109l0,0V260.51c0-3.492,2.618-6.109,5.673-6.109l0,0h21.818c3.491,0,6.109,2.617,6.109,6.109l0,0
		v21.817H303.418z M303.418,226.473c0,3.491-2.618,6.109-6.109,6.109l0,0h-21.818c-3.491,0-6.109-2.618-6.109-6.109l0,0v-21.818
		c0-3.491,2.618-6.109,6.109-6.109l0,0h21.818c3.491,0,6.109,2.618,6.109,6.109l0,0V226.473z M303.418,170.618
		c0,3.491-2.618,6.109-6.109,6.109l0,0h-21.818c-3.491,0-6.109-2.619-6.109-6.109l0,0V148.8c0-3.491,2.618-6.109,6.109-6.109l0,0
		h21.818c3.491,0,6.109,2.618,6.109,6.109l0,0V170.618z M303.418,114.327c0,3.491-2.618,6.109-6.109,6.109l0,0h-21.818
		c-3.491,0-6.109-2.618-6.109-6.109l0,0V92.509c0-3.491,2.618-6.109,5.673-6.109l0,0h21.818c3.491,0,6.109,2.618,6.109,6.109l0,0
		v21.818H303.418z M371.928,338.618c0,3.491-2.619,6.109-6.109,6.109H344c-3.49,0-6.109-2.618-6.109-6.109V316.8
		c0-3.491,2.619-6.108,6.109-6.108h21.818c3.49,0,6.109,2.617,6.109,6.108V338.618z M371.928,226.473
		c0,3.491-2.619,6.109-6.109,6.109l0,0H344c-3.49,0-6.109-2.618-6.109-6.109l0,0v-21.818c0-3.491,2.619-6.109,6.109-6.109l0,0
		h21.818c3.49,0,6.109,2.618,6.109,6.109l0,0V226.473z M443.491,447.272h-59.782v-74.618c0-3.49,2.618-6.108,6.109-6.108h47.563
		c3.491,0,6.109,2.618,6.109,6.108V447.272z M488.873,338.618c0,3.491-2.618,6.109-6.109,6.109h-21.818
		c-3.491,0-6.109-2.618-6.109-6.109V316.8c0-3.491,2.618-6.108,6.109-6.108h21.818c3.491,0,6.109,2.617,6.109,6.108V338.618z
		 M488.873,282.327c0,3.491-2.618,6.109-6.109,6.109h-21.818c-3.491,0-6.109-2.618-6.109-6.109V260.51
		c0-3.492,2.618-6.109,5.673-6.109l0,0h21.818c3.491,0,6.109,2.617,6.109,6.109l0,0v21.817H488.873z M488.873,226.473
		c0,3.491-2.618,6.109-6.109,6.109h-21.818c-3.491,0-6.109-2.618-6.109-6.109v-21.818c0-3.491,2.618-6.109,6.109-6.109h21.818
		c3.491,0,6.109,2.618,6.109,6.109V226.473z"/>
</g>
</svg>
